<svg xmlns="http://www.w3.org/2000/svg" viewBox="0 0 101 101"><defs><style>.cls-1{fill:none;stroke:#4a4a4a;stroke-miterlimit:10;}.cls-2{fill:#4a4a4a;}</style></defs><title>Asset 10</title><g id="Layer_2" data-name="Layer 2"><g id="Layer_1-2" data-name="Layer 1"><rect class="cls-1" x="40.5" y="0.5" width="20" height="20"/><rect class="cls-1" x="0.5" y="20.5" width="20" height="20"/><rect class="cls-1" x="20.5" y="20.5" width="20" height="20"/><rect class="cls-1" x="40.5" y="20.5" width="20" height="20"/><rect class="cls-1" x="60.5" y="20.5" width="20" height="20"/><rect class="cls-1" x="40.5" y="40.5" width="20" height="20"/><rect class="cls-1" x="20.5" y="60.5" width="20" height="20"/><rect class="cls-1" x="40.5" y="60.5" width="20" height="20"/><rect class="cls-1" x="60.5" y="60.5" width="20" height="20"/><rect class="cls-1" x="80.5" y="60.5" width="20" height="20"/><rect class="cls-1" x="40.5" y="80.5" width="20" height="20"/><path class="cls-2" d="M8.32,26.46h4.36v.87H9.37V30h3.06v.86H9.37v3.66h-1Z"/><path class="cls-2" d="M29,32l-.84,2.54H27.12l2.74-8.08h1.26l2.76,8.08H32.77L31.9,32Zm2.65-.82-.79-2.32c-.18-.53-.3-1-.42-1.48h0c-.12.48-.25,1-.41,1.46l-.79,2.34Z"/><path class="cls-2" d="M70,27.35H67.51v-.89h6v.89H71v7.19H70Z"/><path class="cls-2" d="M48.32,33.28a3.75,3.75,0,0,0,1.87.52c1.06,0,1.69-.56,1.69-1.38s-.43-1.18-1.52-1.6c-1.32-.47-2.14-1.15-2.14-2.29a2.33,2.33,0,0,1,2.61-2.2,3.6,3.6,0,0,1,1.79.4l-.29.85a3.24,3.24,0,0,0-1.53-.38c-1.1,0-1.52.66-1.52,1.21,0,.75.49,1.12,1.6,1.56,1.37.52,2.07,1.18,2.07,2.37s-.93,2.33-2.83,2.33a4.21,4.21,0,0,1-2.07-.52Z"/></g></g></svg>