<svg xmlns="http://www.w3.org/2000/svg" viewBox="0 0 81 81"><defs><style>.cls-1{fill:none;}.cls-2{fill:#4a4a4a;}</style></defs><title>Asset 8</title><g id="Layer_2" data-name="Layer 2"><g id="Layer_1-2" data-name="Layer 1"><rect class="cls-1" x="32" y="48" width="17" height="17"/><path class="cls-2" d="M16,17V32H1V17H16m1-1H0V33H17V16Z"/><path class="cls-2" d="M32,17V32H17V17H32m1-1H16V33H33V16Z"/><rect class="cls-1" x="32" y="16" width="17" height="17"/><path class="cls-2" d="M64,17V32H49V17H64m1-1H48V33H65V16Z"/><path class="cls-2" d="M48,65V80H33V65H48m1-1H32V81H49V64Z"/><path class="cls-2" d="M48,33V48H33V33H48m1-1H32V49H49V32Z"/><path class="cls-2" d="M48,1V16H33V1H48m1-1H32V17H49V0Z"/><path class="cls-2" d="M32,49V64H17V49H32m1-1H16V65H33V48Z"/><rect class="cls-1" x="32" y="48" width="17" height="17"/><path class="cls-2" d="M64,49V64H49V49H64m1-1H48V65H65V48Z"/><path class="cls-2" d="M80,49V64H65V49H80m1-1H64V65H81V48Z"/><path class="cls-2" d="M6.5,20.5h4v1h-3v3h3v1h-3v3h-1Z"/><path class="cls-2" d="M23,26l-.84,3H21.12l2.74-9h1.26l2.76,9H26.77l-.87-3Zm2.71-1-.83-2.45c-.19-.55-.32-1.06-.44-1.55h0c-.12.5-.26,1-.43,1.54L23.19,25Z"/><path class="cls-2" d="M38.32,27.28a3.75,3.75,0,0,0,1.87.52c1.07,0,1.69-.56,1.69-1.38s-.43-1.18-1.52-1.6c-1.32-.47-2.14-1.15-2.14-2.29a2.33,2.33,0,0,1,2.62-2.2,3.59,3.59,0,0,1,1.78.4l-.29.85a3.24,3.24,0,0,0-1.53-.38c-1.1,0-1.52.66-1.52,1.21,0,.75.49,1.12,1.6,1.56,1.37.52,2.07,1.18,2.07,2.37s-.93,2.33-2.83,2.33a4.21,4.21,0,0,1-2.07-.52Z"/><path class="cls-2" d="M55.5,21.5h-2v-1h6v1h-3v7h-1Z"/></g></g></svg>