<?xml version="1.0" encoding="utf-8"?>
<!-- Generator: Adobe Illustrator 22.1.0, SVG Export Plug-In . SVG Version: 6.00 Build 0)  -->
<svg version="1.1" id="Layer_1" xmlns="http://www.w3.org/2000/svg" xmlns:xlink="http://www.w3.org/1999/xlink" x="0px" y="0px"
	 viewBox="0 0 144 144" style="enable-background:new 0 0 144 144;" xml:space="preserve">
<style type="text/css">
	.st0{fill:none;stroke:#000000;stroke-miterlimit:10;}
</style>
<g>
	<path class="st0" d="M109.2,95.6H41.6c-1.8,0-3.3-1.5-3.3-3.3V80.8c0-1.8,1.5-3.3,3.3-3.3h67.6c1.8,0,3.3,1.5,3.3,3.3v11.6
		C112.5,94.2,111,95.6,109.2,95.6z"/>
</g>
<g>
	<path class="st0" d="M75.3,110.4V42.7c0-1.8,1.5-3.3,3.3-3.3h11.6c1.8,0,3.3,1.5,3.3,3.3v67.6c0,1.8-1.5,3.3-3.3,3.3H78.6
		C76.8,113.6,75.3,112.2,75.3,110.4z"/>
</g>
<g>
	<path class="st0" d="M90.2,57.6H22.6c-1.8,0-3.3-1.5-3.3-3.3V42.8c0-1.8,1.5-3.3,3.3-3.3h67.6c1.8,0,3.3,1.5,3.3,3.3v11.6
		C93.5,56.2,92,57.6,90.2,57.6z"/>
</g>
<g>
	<path d="M83.7,45.7v2.7h3v1h-3V53h-1.1v-8.3h4.8v1H83.7z"/>
</g>
<g>
	<path d="M86.4,69.8h-3.5L82,71.9h-1.1l3.1-8.3h1.2l3.1,8.3h-1.1L86.4,69.8z M86,68.8l-1.4-3.7l-1.4,3.7H86z"/>
</g>
<g>
	<path d="M81.6,88.5h1.1c0,0.7,0.7,1.5,1.8,1.5c1.1,0,1.7-0.7,1.7-1.4c0-0.8-0.7-1.2-1.4-1.3l-1.1-0.3c-1.8-0.4-2-1.5-2-2.1
		c0-1.4,1.3-2.3,2.7-2.3c1.5,0,2.6,0.9,2.6,2.4h-1.1c0-0.8-0.7-1.4-1.6-1.4c-0.8,0-1.6,0.5-1.6,1.3c0,0.3,0.1,0.9,1.2,1.2l1.1,0.3
		c1.4,0.3,2.2,1.1,2.2,2.3c0,1.3-1,2.4-2.8,2.4C82.8,91,81.6,89.8,81.6,88.5z"/>
</g>
<g>
	<path d="M87.7,102.5h-2.5v7.3h-1.1v-7.3h-2.5v-1h6.1V102.5z"/>
</g>
<line class="st0" x1="57" y1="77" x2="57" y2="96"/>
<line class="st0" x1="57" y1="39" x2="57" y2="58"/>
<line class="st0" x1="38.5" y1="39" x2="38.5" y2="58"/>
</svg>
