<svg xmlns="http://www.w3.org/2000/svg" viewBox="0 0 101 100"><defs><style>.cls-1,.cls-2{fill:none;}.cls-1{stroke:#000;stroke-miterlimit:10;}</style></defs><title>Asset 1</title><g id="Layer_2" data-name="Layer 2"><g id="Layer_1-2" data-name="Layer 1"><path class="cls-1" d="M97,70.71H24.43a3.57,3.57,0,0,1-3.54-3.54V54.83a3.57,3.57,0,0,1,3.54-3.54H97a3.57,3.57,0,0,1,3.54,3.54V67.27A3.48,3.48,0,0,1,97,70.71Z"/><path class="cls-1" d="M60.59,86.59V14a3.57,3.57,0,0,1,3.54-3.54H76.57A3.57,3.57,0,0,1,80.11,14V86.48A3.57,3.57,0,0,1,76.57,90H64.13A3.48,3.48,0,0,1,60.59,86.59Z"/><path class="cls-1" d="M76.57,29.94H4A3.57,3.57,0,0,1,.5,26.39V14.06A3.57,3.57,0,0,1,4,10.52H76.57a3.57,3.57,0,0,1,3.54,3.54V26.5A3.49,3.49,0,0,1,76.57,29.94Z"/><path d="M69.6,17.17v2.89h3.22v1.08H69.6V25H68.42V16.09h5.15v1.08Z"/><path d="M72.5,43H68.74l-1,2.25H66.59l3.33-8.91h1.29l3.32,8.91H73.35ZM72.07,42l-1.51-4-1.5,4Z"/><path d="M67.35,63.09h1.18a1.81,1.81,0,0,0,1.93,1.61,1.63,1.63,0,0,0,1.82-1.5c0-.86-.75-1.29-1.5-1.4l-1.18-.32c-1.93-.43-2.15-1.61-2.15-2.25a2.68,2.68,0,0,1,2.9-2.47,2.54,2.54,0,0,1,2.79,2.57H72a1.59,1.59,0,0,0-1.72-1.5,1.57,1.57,0,0,0-1.71,1.4c0,.32.1,1,1.28,1.29l1.18.32c1.51.32,2.36,1.18,2.36,2.46s-1.07,2.58-3,2.58A3,3,0,0,1,67.35,63.09Z"/><path d="M73.89,78.11H71.21v7.83H70V78.11H67.35V77h6.54Z"/><line class="cls-1" x1="40.95" y1="50.75" x2="40.95" y2="71.14"/><line class="cls-1" x1="40.95" y1="9.98" x2="40.95" y2="30.36"/><line class="cls-1" x1="21.1" y1="9.98" x2="21.1" y2="30.36"/><rect class="cls-2" x="0.5" width="100" height="100"/></g></g></svg>